<?xml version="1.0" encoding="utf-8"?>
<!-- Generator: Adobe Illustrator 25.4.1, SVG Export Plug-In . SVG Version: 6.00 Build 0)  -->
<svg version="1.1" id="Capa_1" xmlns="http://www.w3.org/2000/svg" xmlns:xlink="http://www.w3.org/1999/xlink" x="0px" y="0px"
	 viewBox="0 0 1920 1920" style="enable-background:new 0 0 1920 1920;" xml:space="preserve">
<style type="text/css">
	.st0{fill:#23292F;}
	.st1{fill:#FFFFFF;}
	.st2{display:none;}
	.st3{display:inline;fill:#1D1D1B;}
	.st4{display:inline;}
	.st5{fill:#1D1D1B;}
</style>
<g id="Capa_1_00000121987080040252790630000011726646454130068140_">
	<g>
		<g>
			<g>
				<polygon class="st0" points="1471.41,1203.95 1359.13,1203.95 1267.4,1032.9 1083.55,1032.9 1083.55,936.17 1215.52,936.17 
					1194.08,896.16 1046.23,620.41 1046.23,1204.17 947.3,1204.17 947.3,463.06 1074.09,463.06 				"/>
				<g>
					<path class="st0" d="M880.65,958.47c0,89.11-18.61,152.29-55.82,189.57c-37.22,37.26-92.14,55.9-164.78,55.9
						c-65.13,0-116.66-18.38-154.58-55.15c-37.93-36.77-56.89-85.3-56.89-145.59v-19.38h104.66c0,88.78,35.6,133.17,106.81,133.17
						c37.57,0,66.37-9.77,86.42-29.31c20.04-19.55,30.06-60.95,30.06-124.22V463.08h104.13V958.47z"/>
				</g>
			</g>
			<g>
				<path class="st0" d="M1577.5,1324.76v203.14c0,27.39-22.18,49.62-49.62,49.62H392.12c-27.44,0-49.62-22.23-49.62-49.62v-203.14
					H1577.5z"/>
			</g>
			<path class="st0" d="M1527.88,342.47H392.12c-27.44,0-49.62,22.23-49.62,49.62v1135.81c0,27.39,22.18,49.62,49.62,49.62h1135.76
				c27.44,0,49.62-22.23,49.62-49.62V392.1C1577.5,364.7,1555.32,342.47,1527.88,342.47z M1567.57,1527.9
				c0,21.89-17.82,39.7-39.7,39.7H392.12c-21.93,0-39.7-17.82-39.7-39.7V392.1c0-21.89,17.76-39.7,39.7-39.7h1135.76
				c21.89,0,39.7,17.82,39.7,39.7V1527.9L1567.57,1527.9z"/>
		</g>
		<g>
			<path class="st1" d="M787,1374.67c0-1.04-0.64-1.69-1.69-1.69h-4.22c-1.04,0-1.69,0.64-1.69,1.69l-0.2,60.53l-0.84,0.4
				c-9.28-11.81-21.93-18.95-37.56-18.95c-28.88,0-48.93,22.97-48.93,57.16c0,32.65,18.8,55.43,47.49,55.43
				c15.58,0,30.37-6.5,38.8-18.76l1.04,0.25v15.38c0,1.04,0.64,1.69,1.69,1.69h4.67c1.04,0,1.69-0.64,1.69-1.69L787,1374.67z
				 M779.66,1495.5c-6.55,17.32-21.93,26.6-38.6,26.6c-25.3,0-41.33-20.05-41.33-48.93c0-29.72,16.62-49.13,41.09-49.13
				c17.32,0,31.46,9.68,38.85,27.84V1495.5z"/>
			<path class="st1" d="M971.54,1417.5c-28.28,0-48.93,22.33-48.93,56.52c0,32.45,18.95,55.23,48.72,55.23
				c19.99,0,34.59-9.68,42.57-26.35c0.45-1.04,0-1.89-1.24-1.89H1008c-0.85,0-1.49,0.45-1.89,1.24
				c-6.75,12.06-18.16,19.85-34.39,19.85c-28.48,0-42.58-23.82-41.33-51.45h84.36c1.04,0,1.69-0.64,1.69-1.69
				C1016.64,1439.83,999.37,1417.5,971.54,1417.5z M931.05,1463.89c2.92-23.62,18.56-39,40.05-39c22.38,0,36.27,16.87,37.56,39
				H931.05z"/>
			<path class="st1" d="M1226.49,1418.34h-4.02c-1.04,0-1.69,0.4-1.89,1.24l-36.47,99.59h-1.49l-35.63-99.59
				c-0.2-0.84-0.85-1.24-1.89-1.24h-4.22c-1.29,0-1.94,0.85-1.49,1.89l37.76,106.29c0.2,0.84,0.85,1.29,1.89,1.29h8.24
				c1.04,0,1.69-0.45,1.89-1.29l38.8-106.29C1228.37,1419.19,1227.77,1418.34,1226.49,1418.34z"/>
		</g>
	</g>
</g>
<g id="Capa_2_00000106136276440067217420000006547173905851832755_" class="st2">
	<path class="st3" d="M1105.83,1064.37v17.6h-57.6v-17.6H1105.83z"/>
	<g class="st4">
		<polygon class="st5" points="1155.16,1124.08 1130.55,1124.08 1097.26,1082.17 1086.08,1068.08 1042.95,1013.77 1038.28,1007.89 
			1038.28,1124.12 1020.28,1124.12 1020.28,989.28 1046.49,989.28 1054.96,999.95 		"/>
	</g>
</g>
</svg>
